<?xml version="1.0" standalone="no"?>
<!DOCTYPE svg PUBLIC "-//W3C//DTD SVG 20010904//EN"
 "http://www.w3.org/TR/2001/REC-SVG-20010904/DTD/svg10.dtd">
<svg version="1.0" xmlns="http://www.w3.org/2000/svg"
 width="2494.000000pt" height="2494.000000pt" viewBox="0 0 2494.000000 2494.000000"
 preserveAspectRatio="xMidYMid meet">
<metadata>
Created by potrace 1.14, written by Peter Selinger 2001-2017
</metadata>
<g transform="translate(0.000000,2494.000000) scale(0.100000,-0.100000)"
fill="#000000" stroke="none">
<path d="M10060 22790 c-2343 -112 -4519 -981 -6240 -2492 -1641 -1440 -2743
-3313 -3215 -5461 -36 -165 -115 -590 -115 -619 0 -5 677 -8 1503 -8 l1504 0
33 138 c277 1162 834 2226 1632 3117 153 170 449 463 615 608 1813 1580 4299
2144 6643 1505 318 -86 716 -230 1035 -373 1862 -834 3299 -2462 3891 -4410
154 -504 243 -970 296 -1540 18 -189 18 -969 0 -1165 -26 -287 -74 -626 -122
-859 -11 -52 -20 -96 -20 -98 0 -1 -2428 -3 -5396 -3 l-5395 0 7 -22 c17 -55
129 -290 193 -406 965 -1753 3031 -2546 4936 -1895 468 160 939 428 1306 743
l55 48 1380 -740 c758 -407 1392 -746 1407 -754 l28 -15 -123 -142 c-239 -276
-604 -625 -913 -874 -661 -531 -1443 -951 -2265 -1218 -561 -182 -1140 -291
-1770 -335 -190 -13 -691 -13 -900 0 -1730 110 -3328 817 -4564 2020 -947 923
-1624 2107 -1943 3403 l-46 187 -1504 0 -1504 0 5 -32 c131 -801 312 -1466
591 -2173 435 -1105 1058 -2115 1864 -3020 152 -171 621 -640 791 -791 694
-616 1403 -1096 2220 -1503 1248 -621 2566 -969 3990 -1051 234 -14 871 -14
1100 0 1399 82 2690 417 3915 1014 836 408 1546 884 2285 1533 93 82 1647
1628 3870 3850 l3715 3713 -3670 3671 c-2018 2018 -3751 3744 -3850 3834
-1623 1476 -3681 2379 -5880 2580 -411 37 -1007 52 -1375 35z"/>
<path d="M10200 16754 c-253 -23 -508 -65 -720 -119 -1223 -315 -2214 -1153
-2725 -2306 -25 -56 -45 -105 -45 -110 0 -5 1645 -9 3791 -9 3277 0 3790 2
3786 14 -92 238 -265 557 -433 797 -602 858 -1503 1448 -2532 1658 -281 58
-427 72 -767 76 -170 1 -330 1 -355 -1z"/>
</g>
</svg>
